<?xml version="1.0" standalone="no"?>
<!DOCTYPE svg PUBLIC "-//W3C//DTD SVG 20010904//EN"
 "http://www.w3.org/TR/2001/REC-SVG-20010904/DTD/svg10.dtd">
<svg version="1.0" xmlns="http://www.w3.org/2000/svg"
 width="600.000000pt" height="600.000000pt" viewBox="0 0 600.000000 600.000000"
 preserveAspectRatio="xMidYMid meet">
<metadata>
Created by potrace 1.11, written by Peter Selinger 2001-2013
</metadata>
<g transform="translate(0.000000,600.000000) scale(0.100000,-0.100000)"
fill="#000000" stroke="none">
<path d="M1643 5462 c-749 -268 -1364 -490 -1368 -494 -3 -3 87 -819 202
-1812 l208 -1806 1160 -643 c638 -353 1164 -641 1170 -639 7 3 2294 1265 2312
1277 1 0 90 764 198 1696 108 931 202 1746 210 1809 8 63 11 118 7 122 -6 6
-2729 979 -2735 977 -1 0 -615 -220 -1364 -487z m872 -1062 c331 -104 549
-379 571 -718 7 -103 -11 -234 -43 -320 l-16 -43 535 -537 536 -537 5 -55 c4
-30 12 -122 19 -204 l12 -149 -28 -23 c-15 -13 -33 -24 -39 -24 -7 0 -67 -7
-132 -15 -161 -20 -184 -19 -212 7 -21 20 -23 30 -23 130 l0 108 -107 0 c-60
0 -113 4 -120 8 -26 16 -35 67 -28 161 l7 93 -96 -7 c-102 -8 -149 2 -161 33
-4 10 -6 63 -5 120 l1 102 -112 0 -113 0 -182 181 -182 182 -40 -16 c-64 -26
-186 -47 -269 -47 -203 0 -394 76 -539 212 -183 174 -260 353 -258 598 2 234
75 402 247 567 116 111 230 173 383 207 99 23 295 15 389 -14z"/>
<path d="M1932 4084 c-115 -57 -156 -204 -88 -313 33 -52 69 -78 133 -97 67
-20 132 -7 194 38 47 34 89 113 89 169 0 170 -175 279 -328 203z"/>
<path d="M2918 3135 c-16 -18 -28 -37 -28 -42 0 -16 906 -913 923 -913 22 0
57 35 57 58 0 15 -907 933 -920 931 -3 0 -17 -15 -32 -34z"/>
</g>
</svg>
